<?xml version="1.0" encoding="utf-8"?>
<!-- Generator: Adobe Illustrator 16.0.0, SVG Export Plug-In . SVG Version: 6.00 Build 0)  -->
<!DOCTYPE svg PUBLIC "-//W3C//DTD SVG 1.1//EN" "http://www.w3.org/Graphics/SVG/1.1/DTD/svg11.dtd">
<svg version="1.1" id="Layer_1" xmlns="http://www.w3.org/2000/svg" xmlns:xlink="http://www.w3.org/1999/xlink" x="0px" y="0px"
	 width="66px" height="66px" viewBox="0 0 66 66" enable-background="new 0 0 66 66" xml:space="preserve">
<g>
	<g>
		<g>
			<g>
				<g>
					<g>
						<g>
							<path fill="#F7910B" d="M63,41.397c0,12.836-11.795,23.241-30.001,23.241C14.791,64.639,3,54.233,3,41.397
								S14.791,9.254,32.999,9.254C51.205,9.254,63,28.562,63,41.397z"/>
							<path fill="#F7910B" d="M63,41.397c0,12.836-11.795,19.285-30.001,19.285C14.791,60.683,3,54.233,3,41.397
								S14.791,7.276,32.999,7.276C51.205,7.276,63,28.562,63,41.397z"/>
							<path fill="#F9A908" d="M32.999,7.276C51.205,7.276,63,28.562,63,41.397S51.205,60.683,32.999,60.683"/>
							<path fill="#F9A908" d="M63,41.397c0,12.836-11.795,19.285-30.001,19.285C14.791,60.683,3,54.233,3,41.397
								S14.791,9.254,32.999,9.254C51.205,9.254,63,28.562,63,41.397z"/>
							<path fill="#F9C55D" d="M3,41.397C3,28.562,14.791,9.254,32.999,9.254"/>
							<path fill="#F7910B" d="M32.999,9.254C51.205,9.254,63,28.562,63,41.397S51.205,64.639,32.999,64.639"/>
							<path fill="#EA7103" d="M32.999,9.254C51.205,9.254,63,28.562,63,41.397"/>
							<g>
								<circle fill="#EA7103" cx="22.73" cy="29.7" r="3.148"/>
								<circle fill="#EA7103" cx="43.27" cy="29.7" r="3.148"/>
								<circle fill="#1E4784" cx="22.73" cy="28.801" r="3.148"/>
								<path fill="#00233F" d="M22.73,25.652c1.74,0,3.148,1.41,3.148,3.148s-1.408,3.148-3.148,3.148"/>
								<circle fill="#1E4784" cx="43.27" cy="28.801" r="3.148"/>
								<path fill="#00233F" d="M43.27,25.652c1.739,0,3.148,1.41,3.148,3.148s-1.409,3.148-3.148,3.148"/>
							</g>
							<g>
								<g>
									<g>
										<g>
											<g>
												<path fill="#19BCA4" d="M28.288,25.772c-0.377,0.772-1.488-0.255-3.095-1.039c-1.607-0.784-3.099-1.029-2.723-1.802
													c0.377-0.771,1.986-0.761,3.589,0.021C27.67,23.74,28.664,25.002,28.288,25.772z"/>
											</g>
										</g>
									</g>
									<g>
										<g>
											<g>
												<path fill="#19BCA4" d="M38.164,24.295c0.473,0.717,1.441-0.444,2.933-1.429c1.495-0.983,2.942-1.418,2.471-2.136
													c-0.476-0.715-2.069-0.499-3.557,0.481C38.516,22.199,37.691,23.579,38.164,24.295z"/>
											</g>
										</g>
									</g>
								</g>
								<g>
									<g>
										<g>
											<g>
												<path fill="#109DA0" d="M28.288,25.772c-0.377,0.772-1.488-0.255-3.095-1.039c-1.607-0.784-3.099-1.029-2.723-1.802"/>
											</g>
										</g>
									</g>
									<g>
										<g>
											<g>
												<path fill="#109DA0" d="M38.164,24.295c0.473,0.717,1.441-0.444,2.933-1.429c1.495-0.983,2.942-1.418,2.471-2.136"/>
											</g>
										</g>
									</g>
								</g>
							</g>
							<g>
								<path fill="#F9C55D" d="M28.877,34.781c0,1.209-3.456,0.643-7.719,0.643c-4.266,0-7.722,0.566-7.722-0.643
									c0-1.207,3.456-2.187,7.722-2.187C25.421,32.595,28.877,33.574,28.877,34.781z"/>
								<path fill="#F9A908" d="M52.563,34.781c0,1.209-3.456,0.643-7.722,0.643c-4.265,0-7.719,0.566-7.719-0.643
									c0-1.207,3.454-2.187,7.719-2.187C49.107,32.595,52.563,33.574,52.563,34.781z"/>
							</g>
							<circle fill="#F7910B" cx="11.57" cy="38.39" r="0.617"/>
							<circle fill="#F7910B" cx="7.12" cy="40.367" r="1.112"/>
							<circle fill="#F7910B" cx="10.087" cy="36.411" r="0.248"/>
							<circle fill="#F7910B" cx="14.6" cy="38.204" r="0.186"/>
							<circle fill="#F9A908" cx="53.357" cy="38.761" r="0.742"/>
							<circle fill="#F9A908" cx="55.83" cy="40.12" r="0.248"/>
							<circle fill="#F9A908" cx="50.575" cy="31.403" r="0.31"/>
							<circle fill="#F9A908" cx="50.08" cy="42.901" r="1.299"/>
							<circle fill="#F9A908" cx="57.189" cy="42.964" r="0.618"/>
							<circle fill="#F7910B" cx="10.582" cy="42.386" r="0.495"/>
							<circle fill="#F7910B" cx="11.325" cy="34.062" r="0.413"/>
							<circle fill="#F9A908" cx="6.13" cy="20.463" r="1.112"/>
							<circle fill="#F9A908" cx="9.283" cy="16.939" r="0.557"/>
							<circle fill="#F9A908" cx="59.907" cy="22.812" r="0.247"/>
							<circle fill="#F9A908" cx="59.105" cy="19.906" r="0.804"/>
							<path fill="#F9A908" d="M62.133,20.463c0,0.273-0.219,0.494-0.495,0.494c-0.27,0-0.494-0.221-0.494-0.494
								s0.225-0.495,0.494-0.495C61.914,19.968,62.133,20.189,62.133,20.463z"/>
							<path fill="#F9A908" d="M7.862,23.368c0,0.307-0.249,0.556-0.559,0.556c-0.305,0-0.557-0.249-0.557-0.556
								c0-0.308,0.252-0.557,0.557-0.557C7.613,22.812,7.862,23.061,7.862,23.368z"/>
							<path fill="#1E4784" d="M3.016,41.892c0.299,12.606,12.013,22.747,29.983,22.747c17.975,0,29.688-10.141,29.987-22.747H3.016
								z"/>
							<path fill="#00233F" d="M32.999,64.639c17.975,0,29.688-10.141,29.987-22.747H3.016"/>
						</g>
					</g>
				</g>
			</g>
		</g>
		<g>
			<path fill="#1E4784" d="M48.32,13.03c0,3.376-2.736,6.112-6.113,6.112H23.792c-3.378,0-6.113-2.736-6.113-6.112l0,0
				c0-3.375,2.735-6.11,6.113-6.11h18.415C45.584,6.92,48.32,9.655,48.32,13.03L48.32,13.03z"/>
			<path fill="#00233F" d="M48.32,13.03L48.32,13.03c0,3.376-2.736,6.112-6.113,6.112H23.792c-3.378,0-6.113-2.736-6.113-6.112l0,0"
				/>
		</g>
		<polyline fill="#F7910B" points="38.317,41.192 33.001,46.508 27.683,41.192 		"/>
		<g>
			
				<line fill="none" stroke="#02243E" stroke-width="2.2" stroke-linecap="round" stroke-linejoin="round" stroke-miterlimit="10" x1="24.84" y1="39.46" x2="32.588" y2="36.636"/>
			
				<line fill="none" stroke="#02243E" stroke-width="2.2" stroke-linecap="round" stroke-linejoin="round" stroke-miterlimit="10" x1="41.16" y1="39.46" x2="33.412" y2="36.636"/>
		</g>
	</g>
	<polygon fill="#1E4784" points="20.479,13.428 12.739,5.592 33.001,1.361 53.261,5.592 45.522,13.428 	"/>
	<polygon fill="#00233F" points="20.479,13.428 12.739,5.592 32.834,3.587 53.261,5.592 45.522,13.428 	"/>
	<polygon fill="#F9A908" points="33.001,7.026 34.405,9.873 37.546,10.33 35.274,12.546 35.81,15.674 33.001,14.197 30.19,15.674 
		30.728,12.546 28.454,10.33 31.597,9.873 	"/>
	<circle fill="#F7910B" cx="33" cy="56.418" r="2.638"/>
</g>
</svg>
